<?xml version="1.0" encoding="UTF-8" standalone="no"?>
<!DOCTYPE svg PUBLIC "-//W3C//DTD SVG 1.1//EN" "http://www.w3.org/Graphics/SVG/1.1/DTD/svg11.dtd">
<svg xmlns="http://www.w3.org/2000/svg" version="1.1" viewBox="0.00 0.00 1745.00 336.00">
<g stroke-width="2.00" fill="none" stroke-linecap="butt">
<path stroke="#f8c5ae" vector-effect="non-scaling-stroke" d="
  M 723.95 172.84
  A 0.41 0.41 0.0 0 1 723.25 172.55
  Q 723.24 109.86 723.26 47.21
  C 723.26 43.01 724.14 38.30 724.42 33.77
  Q 724.46 33.11 723.86 33.39
  Q 696.49 46.10 669.15 58.86
  Q 668.30 59.25 667.98 59.83
  A 0.69 0.68 6.2 0 0 668.78 60.82
  C 674.38 59.13 690.82 52.96 690.79 64.00
  Q 690.62 137.10 690.88 210.19
  C 690.91 218.00 689.89 224.83 688.58 232.26
  A 0.42 0.42 0.0 0 0 688.99 232.75
  L 737.52 232.75
  A 0.50 0.50 0.0 0 0 737.65 231.77
  C 730.03 229.64 724.30 225.90 723.65 217.24
  Q 722.69 204.53 723.45 174.77
  Q 723.46 174.25 723.99 174.25
  L 727.99 174.25
  A 1.05 1.03 -20.1 0 1 728.78 174.61
  Q 751.44 201.12 774.04 227.69
  Q 775.49 229.41 774.92 231.71
  A 0.84 0.84 0.0 0 0 775.73 232.75
  L 822.51 232.75
  A 0.06 0.06 0.0 0 0 822.54 232.63
  C 809.96 225.30 800.96 216.73 792.47 207.02
  Q 770.36 181.73 748.36 156.04
  A 0.46 0.45 47.5 0 1 748.38 155.43
  C 767.04 136.83 785.56 115.32 813.19 110.46
  Q 813.43 110.42 813.61 110.28
  Q 813.76 110.16 813.85 110.08
  A 0.62 0.62 0.0 0 0 813.43 109.00
  L 770.29 109.00
  A 0.85 0.85 0.0 0 0 770.11 110.68
  C 773.43 111.43 779.01 112.32 778.15 117.21
  Q 777.76 119.40 776.33 120.83
  Q 750.08 146.94 723.95 172.84"
/>
<path stroke="#f8c5ae" vector-effect="non-scaling-stroke" d="
  M 1075.49 52.66
  C 1053.54 56.99 1032.80 70.74 1030.15 94.72
  C 1026.29 129.70 1053.03 149.58 1083.27 158.21
  C 1100.61 163.16 1134.25 166.80 1139.06 189.05
  C 1143.21 208.21 1133.94 227.65 1113.48 231.26
  Q 1095.50 234.44 1079.10 226.67
  Q 1047.50 211.69 1048.14 176.27
  Q 1048.15 175.84 1047.92 176.21
  L 1025.29 212.05
  Q 1024.96 212.59 1025.43 213.00
  C 1050.77 235.17 1087.77 240.60 1119.75 233.26
  C 1135.64 229.61 1151.16 219.56 1158.94 205.11
  C 1166.27 191.49 1166.95 174.35 1159.96 160.52
  C 1154.01 148.75 1142.91 140.32 1130.95 135.12
  Q 1118.84 129.85 1114.25 128.73
  C 1090.72 123.00 1058.60 117.63 1055.18 89.96
  C 1050.45 51.67 1090.01 47.94 1113.96 62.36
  C 1130.95 72.58 1139.87 89.81 1137.64 109.97
  Q 1137.51 111.13 1138.15 110.15
  L 1161.55 74.28
  Q 1161.87 73.78 1161.44 73.39
  C 1138.49 52.33 1105.30 46.80 1075.49 52.66"
/>
<path stroke="#f8c5ae" vector-effect="non-scaling-stroke" d="
  M 654.00 70.22
  A 18.60 18.60 0.0 0 0 635.40 51.62
  A 18.60 18.60 0.0 0 0 616.80 70.22
  A 18.60 18.60 0.0 0 0 635.40 88.82
  A 18.60 18.60 0.0 0 0 654.00 70.22"
/>
<path stroke="#f8c5ae" vector-effect="non-scaling-stroke" d="
  M 537.70 129.73
  A 0.24 0.23 -49.0 0 1 537.67 129.27
  C 549.79 126.22 561.03 120.07 568.42 109.71
  C 579.73 93.86 576.49 72.97 558.46 64.00
  C 542.05 55.83 522.03 54.49 504.00 54.41
  Q 463.43 54.24 422.86 54.26
  Q 422.48 54.26 422.31 54.43
  Q 422.10 54.63 422.02 54.97
  A 0.55 0.55 0.0 0 0 422.53 55.63
  C 430.48 56.06 441.46 59.21 441.46 69.00
  Q 441.50 139.65 441.50 210.30
  Q 441.50 215.72 440.34 218.39
  C 437.55 224.84 429.13 229.23 422.78 231.36
  Q 421.79 231.69 422.26 232.47
  A 0.56 0.55 -15.5 0 0 422.73 232.73
  Q 465.39 232.79 508.23 232.72
  C 520.13 232.70 529.14 231.83 539.80 229.32
  C 564.34 223.52 588.04 207.64 591.37 181.01
  C 595.71 146.36 566.55 132.61 537.70 129.73"
/>
<path stroke="#f8c5ae" vector-effect="non-scaling-stroke" d="
  M 204.59 79.15
  Q 205.24 79.00 205.57 79.58
  L 216.26 98.33
  Q 216.52 98.79 217.01 99.00
  C 222.42 101.29 224.93 96.32 222.21 91.77
  Q 216.43 82.12 210.34 72.11
  A 3.68 3.67 -22.4 0 0 206.35 70.45
  Q 193.51 73.49 180.34 76.83
  C 173.61 78.53 176.78 85.91 180.74 84.94
  Q 192.80 81.98 204.59 79.15"
/>
<path stroke="#f8c5ae" vector-effect="non-scaling-stroke" d="
  M 257.04 130.53
  C 260.42 132.61 270.78 138.30 270.76 129.57
  Q 270.74 117.28 270.75 105.00
  C 270.75 103.03 268.53 102.11 266.68 102.39
  C 252.29 104.60 239.17 119.54 257.04 130.53"
/>
<path stroke="#f8c5ae" vector-effect="non-scaling-stroke" d="
  M 257.19 152.15
  Q 256.76 152.32 256.53 151.91
  Q 244.00 129.92 231.68 108.34
  Q 229.76 104.98 228.41 103.94
  C 224.20 100.70 217.83 103.63 217.98 109.17
  Q 218.03 111.07 219.96 114.42
  Q 232.60 136.39 245.33 158.38
  Q 245.59 158.83 245.18 159.15
  C 210.59 185.85 222.50 238.98 263.04 250.70
  C 301.35 261.78 336.49 226.38 327.40 188.57
  C 319.86 157.23 287.25 140.43 257.19 152.15"
/>
<path stroke="#f8c5ae" vector-effect="non-scaling-stroke" d="
  M 74.43 125.72
  Q 62.02 124.06 49.71 121.69
  C 44.63 120.71 19.31 115.27 18.48 125.98
  C 17.72 135.75 22.70 143.47 32.31 145.28
  C 51.93 148.99 72.23 147.93 91.98 149.12
  C 98.43 149.50 106.59 149.23 112.06 149.23
  Q 151.69 149.29 191.32 149.04
  C 199.63 148.99 205.37 144.18 209.65 137.56
  C 213.91 130.97 217.03 123.66 212.43 116.95
  C 204.41 105.29 179.00 103.68 167.37 108.79
  C 160.81 111.67 153.99 115.14 147.64 117.40
  C 138.02 120.83 126.08 121.99 115.87 122.44
  Q 98.70 123.20 81.68 125.65
  Q 77.94 126.19 74.43 125.72"
/>
<path stroke="#f8c5ae" vector-effect="non-scaling-stroke" d="
  M 867.87 162.01
  Q 898.11 162.00 928.30 161.96
  Q 937.97 161.95 941.44 160.90
  C 950.46 158.17 955.31 150.14 954.86 140.84
  C 953.92 121.50 934.20 110.08 916.82 108.17
  C 883.44 104.49 847.25 120.25 836.79 153.98
  C 831.36 171.46 833.69 190.79 843.51 206.22
  C 860.66 233.17 897.14 239.28 925.74 231.38
  C 938.36 227.89 951.14 220.74 957.73 209.22
  A 0.84 0.83 82.1 0 0 956.41 208.22
  C 953.65 211.05 950.66 213.88 947.01 215.60
  Q 932.65 222.38 918.24 222.20
  C 885.20 221.78 867.04 193.44 867.42 162.46
  Q 867.42 162.01 867.87 162.01"
/>
<path stroke="#f8c5ae" vector-effect="non-scaling-stroke" d="
  M 1227.77 231.41
  C 1279.10 245.34 1336.45 211.90 1322.92 152.66
  C 1314.67 116.57 1278.59 105.97 1245.94 107.59
  Q 1215.47 109.09 1185.67 115.61
  Q 1181.89 116.43 1178.11 117.73
  A 0.54 0.54 0.0 0 0 1178.24 118.78
  Q 1186.59 119.47 1194.18 123.02
  A 0.88 0.86 12.1 0 1 1194.69 123.79
  C 1195.19 157.52 1194.29 189.83 1194.70 228.09
  C 1194.77 233.99 1194.36 244.20 1194.75 252.75
  Q 1195.03 258.91 1194.15 265.92
  C 1193.29 272.85 1190.37 277.37 1183.48 278.66
  A 0.45 0.45 0.0 0 0 1183.50 279.55
  L 1240.42 287.90
  A 0.38 0.37 61.6 0 0 1240.63 287.19
  C 1230.95 282.64 1227.63 278.50 1227.23 267.54
  Q 1226.58 249.71 1227.17 231.85
  Q 1227.19 231.25 1227.77 231.41"
/>
<path stroke="#f8c5ae" vector-effect="non-scaling-stroke" d="
  M 1416.23 107.63
  C 1382.39 108.34 1349.16 129.93 1345.69 166.00
  C 1340.46 220.49 1393.10 244.05 1438.72 230.93
  C 1450.36 227.58 1463.18 220.09 1469.15 209.13
  A 0.77 0.77 0.0 0 0 1467.94 208.22
  C 1465.11 211.01 1462.15 213.84 1458.50 215.55
  Q 1444.93 221.95 1429.74 222.05
  C 1396.07 222.29 1378.78 192.54 1378.64 162.37
  A 0.38 0.38 0.0 0 1 1379.02 161.99
  Q 1411.42 162.02 1443.62 161.98
  C 1454.98 161.97 1464.64 156.93 1466.12 145.19
  C 1467.08 137.58 1463.90 128.29 1458.59 122.63
  C 1447.47 110.81 1432.41 107.29 1416.23 107.63"
/>
<path stroke="#f8c5ae" vector-effect="non-scaling-stroke" d="
  M 1562.55 113.08
  C 1574.65 117.15 1581.32 128.03 1582.32 140.52
  C 1582.93 148.11 1581.33 155.23 1579.20 162.48
  A 0.30 0.30 0.0 0 0 1579.73 162.73
  L 1604.77 125.22
  Q 1605.11 124.71 1604.68 124.26
  C 1585.15 103.98 1550.60 104.22 1526.29 113.83
  C 1502.86 123.10 1486.75 143.13 1485.51 168.39
  C 1484.37 191.57 1493.79 212.03 1513.83 224.22
  C 1539.76 239.98 1585.87 240.05 1604.59 210.57
  A 0.96 0.96 0.0 0 0 1603.09 209.40
  Q 1595.03 217.86 1582.97 220.39
  Q 1574.16 222.25 1571.01 222.16
  C 1541.62 221.40 1523.57 198.70 1519.58 171.47
  C 1517.32 155.96 1518.27 139.47 1526.50 126.04
  C 1534.08 113.69 1548.95 108.50 1562.55 113.08"
/>
<path stroke="#f8c5ae" vector-effect="non-scaling-stroke" d="
  M 1654.42 110.60
  C 1642.75 113.76 1629.76 122.85 1626.77 135.02
  C 1621.06 158.22 1636.51 176.32 1657.98 182.36
  C 1674.80 187.09 1704.68 185.94 1705.62 210.62
  C 1706.09 222.75 1698.97 229.00 1687.10 229.91
  C 1664.76 231.61 1641.15 218.42 1639.35 194.02
  Q 1639.29 193.29 1638.91 193.91
  L 1623.33 219.04
  Q 1623.07 219.46 1623.46 219.76
  C 1648.92 238.98 1710.01 243.96 1723.68 206.52
  C 1728.81 192.46 1724.64 177.67 1713.10 168.18
  C 1703.45 160.23 1690.39 156.65 1677.93 154.40
  C 1661.56 151.44 1644.41 144.16 1648.51 124.47
  C 1650.39 115.48 1657.64 111.70 1666.55 111.50
  C 1686.41 111.08 1705.21 125.29 1704.50 146.29
  A 0.28 0.28 0.0 0 0 1705.00 146.46
  L 1721.97 122.97
  Q 1722.29 122.53 1721.87 122.18
  C 1703.62 107.06 1676.49 104.63 1654.42 110.60"
/>
<path stroke="#f8c5ae" vector-effect="non-scaling-stroke" d="
  M 620.46 117.91
  Q 620.54 161.56 620.43 204.97
  C 620.41 214.77 619.87 223.10 618.80 232.26
  A 0.44 0.44 0.0 0 0 619.24 232.75
  L 661.75 232.75
  Q 662.64 232.75 661.90 232.25
  C 655.20 227.76 652.79 220.98 652.78 212.94
  Q 652.71 172.14 652.77 131.34
  C 652.78 123.92 653.60 116.00 654.02 108.29
  Q 654.04 107.76 653.51 107.80
  L 605.25 111.48
  A 0.57 0.56 89.4 0 0 604.74 112.01
  Q 604.71 112.59 605.26 112.66
  Q 612.88 113.62 619.92 117.04
  A 0.98 0.97 13.4 0 1 620.46 117.91"
/>
<path stroke="#f8c5ae" vector-effect="non-scaling-stroke" d="
  M 96.37 196.89
  C 90.04 166.85 59.53 149.67 30.82 162.42
  C -1.66 176.85 -6.57 220.95 21.50 242.44
  C 49.93 264.19 89.32 248.38 96.35 213.86
  A 0.70 0.70 0.0 0 1 97.01 213.30
  L 105.99 212.94
  A 0.93 0.93 0.0 0 1 106.84 213.39
  C 107.75 214.88 108.29 215.88 109.68 216.94
  C 113.20 219.62 125.32 230.32 129.00 230.41
  Q 152.49 231.04 187.54 230.45
  C 191.21 230.39 194.73 229.78 196.19 226.43
  Q 208.79 197.49 221.26 168.45
  C 223.86 162.37 218.58 158.05 212.74 158.04
  Q 160.02 157.96 107.32 158.03
  C 101.00 158.04 98.29 162.97 99.20 168.78
  Q 101.39 182.61 103.82 196.69
  A 0.69 0.68 -4.9 0 1 103.14 197.49
  L 97.11 197.50
  A 0.76 0.75 84.4 0 1 96.37 196.89"
/>
<path stroke="#f8c5ae" vector-effect="non-scaling-stroke" d="
  M 524.24 128.00
  C 541.65 125.26 542.30 104.20 539.92 91.36
  C 537.05 75.91 528.78 64.88 513.47 60.53
  C 502.17 57.32 488.97 58.14 476.98 58.28
  Q 476.50 58.29 476.50 58.76
  L 476.50 128.24
  Q 476.50 128.72 476.99 128.73
  Q 496.57 128.81 516.15 128.72
  C 518.83 128.70 522.08 128.34 524.24 128.00"
/>
<path stroke="#f8c5ae" vector-effect="non-scaling-stroke" d="
  M 532.07 226.82
  C 554.53 222.64 557.17 203.94 557.18 184.69
  C 557.19 128.89 516.72 132.88 476.99 133.02
  Q 476.50 133.02 476.50 133.51
  L 476.50 222.45
  Q 476.50 222.88 476.90 223.01
  Q 504.15 232.02 532.07 226.82"
/>
<path stroke="#f8c5ae" vector-effect="non-scaling-stroke" d="
  M 282.06 194.99
  C 287.56 204.24 276.32 211.74 270.22 201.35
  Q 262.84 188.78 255.83 176.66
  Q 255.20 175.56 254.30 176.46
  C 242.43 188.46 240.24 207.42 251.38 220.72
  C 265.88 238.06 291.82 235.85 304.13 217.58
  C 312.64 204.96 310.93 187.49 299.73 176.76
  Q 286.89 164.46 267.65 168.92
  A 0.62 0.61 -21.6 0 0 267.25 169.83
  Q 274.58 182.42 282.06 194.99"
/>
<path stroke="#f8c5ae" vector-effect="non-scaling-stroke" d="
  M 905.79 112.49
  C 879.07 105.72 867.53 136.40 867.17 157.07
  A 0.44 0.43 0.6 0 0 867.61 157.51
  Q 892.75 157.26 918.00 157.06
  C 924.99 157.01 927.76 150.02 927.60 144.02
  C 927.24 130.35 919.68 116.02 905.79 112.49"
/>
<path stroke="#f8c5ae" vector-effect="non-scaling-stroke" d="
  M 1227.00 115.75
  L 1227.00 215.53
  Q 1227.00 216.00 1227.35 216.31
  Q 1240.42 228.01 1256.00 229.76
  C 1276.80 232.10 1287.91 217.22 1290.49 198.24
  C 1294.17 171.34 1288.87 121.97 1255.78 113.02
  Q 1241.42 109.14 1227.59 114.87
  Q 1227.00 115.11 1227.00 115.75"
/>
<path stroke="#f8c5ae" vector-effect="non-scaling-stroke" d="
  M 1398.71 114.57
  C 1384.13 122.31 1378.88 141.91 1378.60 157.03
  Q 1378.60 157.54 1379.10 157.53
  Q 1402.87 157.29 1426.67 157.01
  C 1433.20 156.93 1437.33 155.39 1438.63 148.74
  C 1442.89 127.16 1421.09 102.67 1398.71 114.57"
/>
<path stroke="#f8c5ae" vector-effect="non-scaling-stroke" d="
  M 47.27 198.26
  A 2.84 2.80 23.2 0 1 49.20 197.50
  L 74.53 197.50
  A 1.43 1.42 -12.6 0 0 75.82 195.47
  Q 71.40 186.16 63.61 181.43
  C 49.82 173.06 31.28 179.20 24.77 193.42
  C 18.78 206.48 23.85 222.58 36.83 229.24
  C 52.25 237.15 68.65 230.71 75.94 214.96
  A 0.87 0.87 0.0 0 0 75.14 213.73
  Q 62.61 213.87 49.82 213.49
  C 43.26 213.29 44.94 200.45 47.27 198.26"
/>
</g>
<path fill="#d9d9d9" d="
  M 0.00 0.00
  L 1745.00 0.00
  L 1745.00 336.00
  L 0.00 336.00
  L 0.00 0.00
  Z
  M 723.95 172.84
  A 0.41 0.41 0.0 0 1 723.25 172.55
  Q 723.24 109.86 723.26 47.21
  C 723.26 43.01 724.14 38.30 724.42 33.77
  Q 724.46 33.11 723.86 33.39
  Q 696.49 46.10 669.15 58.86
  Q 668.30 59.25 667.98 59.83
  A 0.69 0.68 6.2 0 0 668.78 60.82
  C 674.38 59.13 690.82 52.96 690.79 64.00
  Q 690.62 137.10 690.88 210.19
  C 690.91 218.00 689.89 224.83 688.58 232.26
  A 0.42 0.42 0.0 0 0 688.99 232.75
  L 737.52 232.75
  A 0.50 0.50 0.0 0 0 737.65 231.77
  C 730.03 229.64 724.30 225.90 723.65 217.24
  Q 722.69 204.53 723.45 174.77
  Q 723.46 174.25 723.99 174.25
  L 727.99 174.25
  A 1.05 1.03 -20.1 0 1 728.78 174.61
  Q 751.44 201.12 774.04 227.69
  Q 775.49 229.41 774.92 231.71
  A 0.84 0.84 0.0 0 0 775.73 232.75
  L 822.51 232.75
  A 0.06 0.06 0.0 0 0 822.54 232.63
  C 809.96 225.30 800.96 216.73 792.47 207.02
  Q 770.36 181.73 748.36 156.04
  A 0.46 0.45 47.5 0 1 748.38 155.43
  C 767.04 136.83 785.56 115.32 813.19 110.46
  Q 813.43 110.42 813.61 110.28
  Q 813.76 110.16 813.85 110.08
  A 0.62 0.62 0.0 0 0 813.43 109.00
  L 770.29 109.00
  A 0.85 0.85 0.0 0 0 770.11 110.68
  C 773.43 111.43 779.01 112.32 778.15 117.21
  Q 777.76 119.40 776.33 120.83
  Q 750.08 146.94 723.95 172.84
  Z
  M 1075.49 52.66
  C 1053.54 56.99 1032.80 70.74 1030.15 94.72
  C 1026.29 129.70 1053.03 149.58 1083.27 158.21
  C 1100.61 163.16 1134.25 166.80 1139.06 189.05
  C 1143.21 208.21 1133.94 227.65 1113.48 231.26
  Q 1095.50 234.44 1079.10 226.67
  Q 1047.50 211.69 1048.14 176.27
  Q 1048.15 175.84 1047.92 176.21
  L 1025.29 212.05
  Q 1024.96 212.59 1025.43 213.00
  C 1050.77 235.17 1087.77 240.60 1119.75 233.26
  C 1135.64 229.61 1151.16 219.56 1158.94 205.11
  C 1166.27 191.49 1166.95 174.35 1159.96 160.52
  C 1154.01 148.75 1142.91 140.32 1130.95 135.12
  Q 1118.84 129.85 1114.25 128.73
  C 1090.72 123.00 1058.60 117.63 1055.18 89.96
  C 1050.45 51.67 1090.01 47.94 1113.96 62.36
  C 1130.95 72.58 1139.87 89.81 1137.64 109.97
  Q 1137.51 111.13 1138.15 110.15
  L 1161.55 74.28
  Q 1161.87 73.78 1161.44 73.39
  C 1138.49 52.33 1105.30 46.80 1075.49 52.66
  Z
  M 654.00 70.22
  A 18.60 18.60 0.0 0 0 635.40 51.62
  A 18.60 18.60 0.0 0 0 616.80 70.22
  A 18.60 18.60 0.0 0 0 635.40 88.82
  A 18.60 18.60 0.0 0 0 654.00 70.22
  Z
  M 537.70 129.73
  A 0.24 0.23 -49.0 0 1 537.67 129.27
  C 549.79 126.22 561.03 120.07 568.42 109.71
  C 579.73 93.86 576.49 72.97 558.46 64.00
  C 542.05 55.83 522.03 54.49 504.00 54.41
  Q 463.43 54.24 422.86 54.26
  Q 422.48 54.26 422.31 54.43
  Q 422.10 54.63 422.02 54.97
  A 0.55 0.55 0.0 0 0 422.53 55.63
  C 430.48 56.06 441.46 59.21 441.46 69.00
  Q 441.50 139.65 441.50 210.30
  Q 441.50 215.72 440.34 218.39
  C 437.55 224.84 429.13 229.23 422.78 231.36
  Q 421.79 231.69 422.26 232.47
  A 0.56 0.55 -15.5 0 0 422.73 232.73
  Q 465.39 232.79 508.23 232.72
  C 520.13 232.70 529.14 231.83 539.80 229.32
  C 564.34 223.52 588.04 207.64 591.37 181.01
  C 595.71 146.36 566.55 132.61 537.70 129.73
  Z
  M 204.59 79.15
  Q 205.24 79.00 205.57 79.58
  L 216.26 98.33
  Q 216.52 98.79 217.01 99.00
  C 222.42 101.29 224.93 96.32 222.21 91.77
  Q 216.43 82.12 210.34 72.11
  A 3.68 3.67 -22.4 0 0 206.35 70.45
  Q 193.51 73.49 180.34 76.83
  C 173.61 78.53 176.78 85.91 180.74 84.94
  Q 192.80 81.98 204.59 79.15
  Z
  M 257.04 130.53
  C 260.42 132.61 270.78 138.30 270.76 129.57
  Q 270.74 117.28 270.75 105.00
  C 270.75 103.03 268.53 102.11 266.68 102.39
  C 252.29 104.60 239.17 119.54 257.04 130.53
  Z
  M 257.19 152.15
  Q 256.76 152.32 256.53 151.91
  Q 244.00 129.92 231.68 108.34
  Q 229.76 104.98 228.41 103.94
  C 224.20 100.70 217.83 103.63 217.98 109.17
  Q 218.03 111.07 219.96 114.42
  Q 232.60 136.39 245.33 158.38
  Q 245.59 158.83 245.18 159.15
  C 210.59 185.85 222.50 238.98 263.04 250.70
  C 301.35 261.78 336.49 226.38 327.40 188.57
  C 319.86 157.23 287.25 140.43 257.19 152.15
  Z
  M 74.43 125.72
  Q 62.02 124.06 49.71 121.69
  C 44.63 120.71 19.31 115.27 18.48 125.98
  C 17.72 135.75 22.70 143.47 32.31 145.28
  C 51.93 148.99 72.23 147.93 91.98 149.12
  C 98.43 149.50 106.59 149.23 112.06 149.23
  Q 151.69 149.29 191.32 149.04
  C 199.63 148.99 205.37 144.18 209.65 137.56
  C 213.91 130.97 217.03 123.66 212.43 116.95
  C 204.41 105.29 179.00 103.68 167.37 108.79
  C 160.81 111.67 153.99 115.14 147.64 117.40
  C 138.02 120.83 126.08 121.99 115.87 122.44
  Q 98.70 123.20 81.68 125.65
  Q 77.94 126.19 74.43 125.72
  Z
  M 867.87 162.01
  Q 898.11 162.00 928.30 161.96
  Q 937.97 161.95 941.44 160.90
  C 950.46 158.17 955.31 150.14 954.86 140.84
  C 953.92 121.50 934.20 110.08 916.82 108.17
  C 883.44 104.49 847.25 120.25 836.79 153.98
  C 831.36 171.46 833.69 190.79 843.51 206.22
  C 860.66 233.17 897.14 239.28 925.74 231.38
  C 938.36 227.89 951.14 220.74 957.73 209.22
  A 0.84 0.83 82.1 0 0 956.41 208.22
  C 953.65 211.05 950.66 213.88 947.01 215.60
  Q 932.65 222.38 918.24 222.20
  C 885.20 221.78 867.04 193.44 867.42 162.46
  Q 867.42 162.01 867.87 162.01
  Z
  M 1227.77 231.41
  C 1279.10 245.34 1336.45 211.90 1322.92 152.66
  C 1314.67 116.57 1278.59 105.97 1245.94 107.59
  Q 1215.47 109.09 1185.67 115.61
  Q 1181.89 116.43 1178.11 117.73
  A 0.54 0.54 0.0 0 0 1178.24 118.78
  Q 1186.59 119.47 1194.18 123.02
  A 0.88 0.86 12.1 0 1 1194.69 123.79
  C 1195.19 157.52 1194.29 189.83 1194.70 228.09
  C 1194.77 233.99 1194.36 244.20 1194.75 252.75
  Q 1195.03 258.91 1194.15 265.92
  C 1193.29 272.85 1190.37 277.37 1183.48 278.66
  A 0.45 0.45 0.0 0 0 1183.50 279.55
  L 1240.42 287.90
  A 0.38 0.37 61.6 0 0 1240.63 287.19
  C 1230.95 282.64 1227.63 278.50 1227.23 267.54
  Q 1226.58 249.71 1227.17 231.85
  Q 1227.19 231.25 1227.77 231.41
  Z
  M 1416.23 107.63
  C 1382.39 108.34 1349.16 129.93 1345.69 166.00
  C 1340.46 220.49 1393.10 244.05 1438.72 230.93
  C 1450.36 227.58 1463.18 220.09 1469.15 209.13
  A 0.77 0.77 0.0 0 0 1467.94 208.22
  C 1465.11 211.01 1462.15 213.84 1458.50 215.55
  Q 1444.93 221.95 1429.74 222.05
  C 1396.07 222.29 1378.78 192.54 1378.64 162.37
  A 0.38 0.38 0.0 0 1 1379.02 161.99
  Q 1411.42 162.02 1443.62 161.98
  C 1454.98 161.97 1464.64 156.93 1466.12 145.19
  C 1467.08 137.58 1463.90 128.29 1458.59 122.63
  C 1447.47 110.81 1432.41 107.29 1416.23 107.63
  Z
  M 1562.55 113.08
  C 1574.65 117.15 1581.32 128.03 1582.32 140.52
  C 1582.93 148.11 1581.33 155.23 1579.20 162.48
  A 0.30 0.30 0.0 0 0 1579.73 162.73
  L 1604.77 125.22
  Q 1605.11 124.71 1604.68 124.26
  C 1585.15 103.98 1550.60 104.22 1526.29 113.83
  C 1502.86 123.10 1486.75 143.13 1485.51 168.39
  C 1484.37 191.57 1493.79 212.03 1513.83 224.22
  C 1539.76 239.98 1585.87 240.05 1604.59 210.57
  A 0.96 0.96 0.0 0 0 1603.09 209.40
  Q 1595.03 217.86 1582.97 220.39
  Q 1574.16 222.25 1571.01 222.16
  C 1541.62 221.40 1523.57 198.70 1519.58 171.47
  C 1517.32 155.96 1518.27 139.47 1526.50 126.04
  C 1534.08 113.69 1548.95 108.50 1562.55 113.08
  Z
  M 1654.42 110.60
  C 1642.75 113.76 1629.76 122.85 1626.77 135.02
  C 1621.06 158.22 1636.51 176.32 1657.98 182.36
  C 1674.80 187.09 1704.68 185.94 1705.62 210.62
  C 1706.09 222.75 1698.97 229.00 1687.10 229.91
  C 1664.76 231.61 1641.15 218.42 1639.35 194.02
  Q 1639.29 193.29 1638.91 193.91
  L 1623.33 219.04
  Q 1623.07 219.46 1623.46 219.76
  C 1648.92 238.98 1710.01 243.96 1723.68 206.52
  C 1728.81 192.46 1724.64 177.67 1713.10 168.18
  C 1703.45 160.23 1690.39 156.65 1677.93 154.40
  C 1661.56 151.44 1644.41 144.16 1648.51 124.47
  C 1650.39 115.48 1657.64 111.70 1666.55 111.50
  C 1686.41 111.08 1705.21 125.29 1704.50 146.29
  A 0.28 0.28 0.0 0 0 1705.00 146.46
  L 1721.97 122.97
  Q 1722.29 122.53 1721.87 122.18
  C 1703.62 107.06 1676.49 104.63 1654.42 110.60
  Z
  M 620.46 117.91
  Q 620.54 161.56 620.43 204.97
  C 620.41 214.77 619.87 223.10 618.80 232.26
  A 0.44 0.44 0.0 0 0 619.24 232.75
  L 661.75 232.75
  Q 662.64 232.75 661.90 232.25
  C 655.20 227.76 652.79 220.98 652.78 212.94
  Q 652.71 172.14 652.77 131.34
  C 652.78 123.92 653.60 116.00 654.02 108.29
  Q 654.04 107.76 653.51 107.80
  L 605.25 111.48
  A 0.57 0.56 89.4 0 0 604.74 112.01
  Q 604.71 112.59 605.26 112.66
  Q 612.88 113.62 619.92 117.04
  A 0.98 0.97 13.4 0 1 620.46 117.91
  Z
  M 96.37 196.89
  C 90.04 166.85 59.53 149.67 30.82 162.42
  C -1.66 176.85 -6.57 220.95 21.50 242.44
  C 49.93 264.19 89.32 248.38 96.35 213.86
  A 0.70 0.70 0.0 0 1 97.01 213.30
  L 105.99 212.94
  A 0.93 0.93 0.0 0 1 106.84 213.39
  C 107.75 214.88 108.29 215.88 109.68 216.94
  C 113.20 219.62 125.32 230.32 129.00 230.41
  Q 152.49 231.04 187.54 230.45
  C 191.21 230.39 194.73 229.78 196.19 226.43
  Q 208.79 197.49 221.26 168.45
  C 223.86 162.37 218.58 158.05 212.74 158.04
  Q 160.02 157.96 107.32 158.03
  C 101.00 158.04 98.29 162.97 99.20 168.78
  Q 101.39 182.61 103.82 196.69
  A 0.69 0.68 -4.9 0 1 103.14 197.49
  L 97.11 197.50
  A 0.76 0.75 84.4 0 1 96.37 196.89
  Z"
/>
<path fill="#f08a5d" d="
  M 723.95 172.84
  Q 750.08 146.94 776.33 120.83
  Q 777.76 119.40 778.15 117.21
  C 779.01 112.32 773.43 111.43 770.11 110.68
  A 0.85 0.85 0.0 0 1 770.29 109.00
  L 813.43 109.00
  A 0.62 0.62 0.0 0 1 813.85 110.08
  Q 813.76 110.16 813.61 110.28
  Q 813.43 110.42 813.19 110.46
  C 785.56 115.32 767.04 136.83 748.38 155.43
  A 0.46 0.45 47.5 0 0 748.36 156.04
  Q 770.36 181.73 792.47 207.02
  C 800.96 216.73 809.96 225.30 822.54 232.63
  A 0.06 0.06 0.0 0 1 822.51 232.75
  L 775.73 232.75
  A 0.84 0.84 0.0 0 1 774.92 231.71
  Q 775.49 229.41 774.04 227.69
  Q 751.44 201.12 728.78 174.61
  A 1.05 1.03 -20.1 0 0 727.99 174.25
  L 723.99 174.25
  Q 723.46 174.25 723.45 174.77
  Q 722.69 204.53 723.65 217.24
  C 724.30 225.90 730.03 229.64 737.65 231.77
  A 0.50 0.50 0.0 0 1 737.52 232.75
  L 688.99 232.75
  A 0.42 0.42 0.0 0 1 688.58 232.26
  C 689.89 224.83 690.91 218.00 690.88 210.19
  Q 690.62 137.10 690.79 64.00
  C 690.82 52.96 674.38 59.13 668.78 60.82
  A 0.69 0.68 6.2 0 1 667.98 59.83
  Q 668.30 59.25 669.15 58.86
  Q 696.49 46.10 723.86 33.39
  Q 724.46 33.11 724.42 33.77
  C 724.14 38.30 723.26 43.01 723.26 47.21
  Q 723.24 109.86 723.25 172.55
  A 0.41 0.41 0.0 0 0 723.95 172.84
  Z"
/>
<path fill="#f08a5d" d="
  M 1030.15 94.72
  C 1032.80 70.74 1053.54 56.99 1075.49 52.66
  C 1105.30 46.80 1138.49 52.33 1161.44 73.39
  Q 1161.87 73.78 1161.55 74.28
  L 1138.15 110.15
  Q 1137.51 111.13 1137.64 109.97
  C 1139.87 89.81 1130.95 72.58 1113.96 62.36
  C 1090.01 47.94 1050.45 51.67 1055.18 89.96
  C 1058.60 117.63 1090.72 123.00 1114.25 128.73
  Q 1118.84 129.85 1130.95 135.12
  C 1142.91 140.32 1154.01 148.75 1159.96 160.52
  C 1166.95 174.35 1166.27 191.49 1158.94 205.11
  C 1151.16 219.56 1135.64 229.61 1119.75 233.26
  C 1087.77 240.60 1050.77 235.17 1025.43 213.00
  Q 1024.96 212.59 1025.29 212.05
  L 1047.92 176.21
  Q 1048.15 175.84 1048.14 176.27
  Q 1047.50 211.69 1079.10 226.67
  Q 1095.50 234.44 1113.48 231.26
  C 1133.94 227.65 1143.21 208.21 1139.06 189.05
  C 1134.25 166.80 1100.61 163.16 1083.27 158.21
  C 1053.03 149.58 1026.29 129.70 1030.15 94.72
  Z"
/>
<path fill="#f08a5d" d="
  M 654.00 70.22
  A 18.60 18.60 0.0 0 1 635.40 88.82
  A 18.60 18.60 0.0 0 1 616.80 70.22
  A 18.60 18.60 0.0 0 1 635.40 51.62
  A 18.60 18.60 0.0 0 1 654.00 70.22
  Z"
/>
<path fill="#f08a5d" d="
  M 537.70 129.73
  C 566.55 132.61 595.71 146.36 591.37 181.01
  C 588.04 207.64 564.34 223.52 539.80 229.32
  C 529.14 231.83 520.13 232.70 508.23 232.72
  Q 465.39 232.79 422.73 232.73
  A 0.56 0.55 -15.5 0 1 422.26 232.47
  Q 421.79 231.69 422.78 231.36
  C 429.13 229.23 437.55 224.84 440.34 218.39
  Q 441.50 215.72 441.50 210.30
  Q 441.50 139.65 441.46 69.00
  C 441.46 59.21 430.48 56.06 422.53 55.63
  A 0.55 0.55 0.0 0 1 422.02 54.97
  Q 422.10 54.63 422.31 54.43
  Q 422.48 54.26 422.86 54.26
  Q 463.43 54.24 504.00 54.41
  C 522.03 54.49 542.05 55.83 558.46 64.00
  C 576.49 72.97 579.73 93.86 568.42 109.71
  C 561.03 120.07 549.79 126.22 537.67 129.27
  A 0.24 0.23 -49.0 0 0 537.70 129.73
  Z
  M 524.24 128.00
  C 541.65 125.26 542.30 104.20 539.92 91.36
  C 537.05 75.91 528.78 64.88 513.47 60.53
  C 502.17 57.32 488.97 58.14 476.98 58.28
  Q 476.50 58.29 476.50 58.76
  L 476.50 128.24
  Q 476.50 128.72 476.99 128.73
  Q 496.57 128.81 516.15 128.72
  C 518.83 128.70 522.08 128.34 524.24 128.00
  Z
  M 532.07 226.82
  C 554.53 222.64 557.17 203.94 557.18 184.69
  C 557.19 128.89 516.72 132.88 476.99 133.02
  Q 476.50 133.02 476.50 133.51
  L 476.50 222.45
  Q 476.50 222.88 476.90 223.01
  Q 504.15 232.02 532.07 226.82
  Z"
/>
<path fill="#d9d9d9" d="
  M 539.92 91.36
  C 542.30 104.20 541.65 125.26 524.24 128.00
  C 522.08 128.34 518.83 128.70 516.15 128.72
  Q 496.57 128.81 476.99 128.73
  Q 476.50 128.72 476.50 128.24
  L 476.50 58.76
  Q 476.50 58.29 476.98 58.28
  C 488.97 58.14 502.17 57.32 513.47 60.53
  C 528.78 64.88 537.05 75.91 539.92 91.36
  Z"
/>
<path fill="#f08a5d" d="
  M 204.59 79.15
  Q 192.80 81.98 180.74 84.94
  C 176.78 85.91 173.61 78.53 180.34 76.83
  Q 193.51 73.49 206.35 70.45
  A 3.68 3.67 -22.4 0 1 210.34 72.11
  Q 216.43 82.12 222.21 91.77
  C 224.93 96.32 222.42 101.29 217.01 99.00
  Q 216.52 98.79 216.26 98.33
  L 205.57 79.58
  Q 205.24 79.00 204.59 79.15
  Z"
/>
<path fill="#f08a5d" d="
  M 257.04 130.53
  C 239.17 119.54 252.29 104.60 266.68 102.39
  C 268.53 102.11 270.75 103.03 270.75 105.00
  Q 270.74 117.28 270.76 129.57
  C 270.78 138.30 260.42 132.61 257.04 130.53
  Z"
/>
<path fill="#f08a5d" d="
  M 257.19 152.15
  C 287.25 140.43 319.86 157.23 327.40 188.57
  C 336.49 226.38 301.35 261.78 263.04 250.70
  C 222.50 238.98 210.59 185.85 245.18 159.15
  Q 245.59 158.83 245.33 158.38
  Q 232.60 136.39 219.96 114.42
  Q 218.03 111.07 217.98 109.17
  C 217.83 103.63 224.20 100.70 228.41 103.94
  Q 229.76 104.98 231.68 108.34
  Q 244.00 129.92 256.53 151.91
  Q 256.76 152.32 257.19 152.15
  Z
  M 282.06 194.99
  C 287.56 204.24 276.32 211.74 270.22 201.35
  Q 262.84 188.78 255.83 176.66
  Q 255.20 175.56 254.30 176.46
  C 242.43 188.46 240.24 207.42 251.38 220.72
  C 265.88 238.06 291.82 235.85 304.13 217.58
  C 312.64 204.96 310.93 187.49 299.73 176.76
  Q 286.89 164.46 267.65 168.92
  A 0.62 0.61 -21.6 0 0 267.25 169.83
  Q 274.58 182.42 282.06 194.99
  Z"
/>
<path fill="#f08a5d" d="
  M 81.68 125.65
  Q 98.70 123.20 115.87 122.44
  C 126.08 121.99 138.02 120.83 147.64 117.40
  C 153.99 115.14 160.81 111.67 167.37 108.79
  C 179.00 103.68 204.41 105.29 212.43 116.95
  C 217.03 123.66 213.91 130.97 209.65 137.56
  C 205.37 144.18 199.63 148.99 191.32 149.04
  Q 151.69 149.29 112.06 149.23
  C 106.59 149.23 98.43 149.50 91.98 149.12
  C 72.23 147.93 51.93 148.99 32.31 145.28
  C 22.70 143.47 17.72 135.75 18.48 125.98
  C 19.31 115.27 44.63 120.71 49.71 121.69
  Q 62.02 124.06 74.43 125.72
  Q 77.94 126.19 81.68 125.65
  Z"
/>
<path fill="#f08a5d" d="
  M 867.42 162.46
  C 867.04 193.44 885.20 221.78 918.24 222.20
  Q 932.65 222.38 947.01 215.60
  C 950.66 213.88 953.65 211.05 956.41 208.22
  A 0.84 0.83 82.1 0 1 957.73 209.22
  C 951.14 220.74 938.36 227.89 925.74 231.38
  C 897.14 239.28 860.66 233.17 843.51 206.22
  C 833.69 190.79 831.36 171.46 836.79 153.98
  C 847.25 120.25 883.44 104.49 916.82 108.17
  C 934.20 110.08 953.92 121.50 954.86 140.84
  C 955.31 150.14 950.46 158.17 941.44 160.90
  Q 937.97 161.95 928.30 161.96
  Q 898.11 162.00 867.87 162.01
  Q 867.42 162.01 867.42 162.46
  Z
  M 905.79 112.49
  C 879.07 105.72 867.53 136.40 867.17 157.07
  A 0.44 0.43 0.6 0 0 867.61 157.51
  Q 892.75 157.26 918.00 157.06
  C 924.99 157.01 927.76 150.02 927.60 144.02
  C 927.24 130.35 919.68 116.02 905.79 112.49
  Z"
/>
<path fill="#f08a5d" d="
  M 1227.17 231.85
  Q 1226.58 249.71 1227.23 267.54
  C 1227.63 278.50 1230.95 282.64 1240.63 287.19
  A 0.38 0.37 61.6 0 1 1240.42 287.90
  L 1183.50 279.55
  A 0.45 0.45 0.0 0 1 1183.48 278.66
  C 1190.37 277.37 1193.29 272.85 1194.15 265.92
  Q 1195.03 258.91 1194.75 252.75
  C 1194.36 244.20 1194.77 233.99 1194.70 228.09
  C 1194.29 189.83 1195.19 157.52 1194.69 123.79
  A 0.88 0.86 12.1 0 0 1194.18 123.02
  Q 1186.59 119.47 1178.24 118.78
  A 0.54 0.54 0.0 0 1 1178.11 117.73
  Q 1181.89 116.43 1185.67 115.61
  Q 1215.47 109.09 1245.94 107.59
  C 1278.59 105.97 1314.67 116.57 1322.92 152.66
  C 1336.45 211.90 1279.10 245.34 1227.77 231.41
  Q 1227.19 231.25 1227.17 231.85
  Z
  M 1227.00 115.75
  L 1227.00 215.53
  Q 1227.00 216.00 1227.35 216.31
  Q 1240.42 228.01 1256.00 229.76
  C 1276.80 232.10 1287.91 217.22 1290.49 198.24
  C 1294.17 171.34 1288.87 121.97 1255.78 113.02
  Q 1241.42 109.14 1227.59 114.87
  Q 1227.00 115.11 1227.00 115.75
  Z"
/>
<path fill="#f08a5d" d="
  M 1345.69 166.00
  C 1349.16 129.93 1382.39 108.34 1416.23 107.63
  C 1432.41 107.29 1447.47 110.81 1458.59 122.63
  C 1463.90 128.29 1467.08 137.58 1466.12 145.19
  C 1464.64 156.93 1454.98 161.97 1443.62 161.98
  Q 1411.42 162.02 1379.02 161.99
  A 0.38 0.38 0.0 0 0 1378.64 162.37
  C 1378.78 192.54 1396.07 222.29 1429.74 222.05
  Q 1444.93 221.95 1458.50 215.55
  C 1462.15 213.84 1465.11 211.01 1467.94 208.22
  A 0.77 0.77 0.0 0 1 1469.15 209.13
  C 1463.18 220.09 1450.36 227.58 1438.72 230.93
  C 1393.10 244.05 1340.46 220.49 1345.69 166.00
  Z
  M 1398.71 114.57
  C 1384.13 122.31 1378.88 141.91 1378.60 157.03
  Q 1378.60 157.54 1379.10 157.53
  Q 1402.87 157.29 1426.67 157.01
  C 1433.20 156.93 1437.33 155.39 1438.63 148.74
  C 1442.89 127.16 1421.09 102.67 1398.71 114.57
  Z"
/>
<path fill="#f08a5d" d="
  M 1562.55 113.08
  C 1548.95 108.50 1534.08 113.69 1526.50 126.04
  C 1518.27 139.47 1517.32 155.96 1519.58 171.47
  C 1523.57 198.70 1541.62 221.40 1571.01 222.16
  Q 1574.16 222.25 1582.97 220.39
  Q 1595.03 217.86 1603.09 209.40
  A 0.96 0.96 0.0 0 1 1604.59 210.57
  C 1585.87 240.05 1539.76 239.98 1513.83 224.22
  C 1493.79 212.03 1484.37 191.57 1485.51 168.39
  C 1486.75 143.13 1502.86 123.10 1526.29 113.83
  C 1550.60 104.22 1585.15 103.98 1604.68 124.26
  Q 1605.11 124.71 1604.77 125.22
  L 1579.73 162.73
  A 0.30 0.30 0.0 0 1 1579.20 162.48
  C 1581.33 155.23 1582.93 148.11 1582.32 140.52
  C 1581.32 128.03 1574.65 117.15 1562.55 113.08
  Z"
/>
<path fill="#f08a5d" d="
  M 1626.77 135.02
  C 1629.76 122.85 1642.75 113.76 1654.42 110.60
  C 1676.49 104.63 1703.62 107.06 1721.87 122.18
  Q 1722.29 122.53 1721.97 122.97
  L 1705.00 146.46
  A 0.28 0.28 0.0 0 1 1704.50 146.29
  C 1705.21 125.29 1686.41 111.08 1666.55 111.50
  C 1657.64 111.70 1650.39 115.48 1648.51 124.47
  C 1644.41 144.16 1661.56 151.44 1677.93 154.40
  C 1690.39 156.65 1703.45 160.23 1713.10 168.18
  C 1724.64 177.67 1728.81 192.46 1723.68 206.52
  C 1710.01 243.96 1648.92 238.98 1623.46 219.76
  Q 1623.07 219.46 1623.33 219.04
  L 1638.91 193.91
  Q 1639.29 193.29 1639.35 194.02
  C 1641.15 218.42 1664.76 231.61 1687.10 229.91
  C 1698.97 229.00 1706.09 222.75 1705.62 210.62
  C 1704.68 185.94 1674.80 187.09 1657.98 182.36
  C 1636.51 176.32 1621.06 158.22 1626.77 135.02
  Z"
/>
<path fill="#f08a5d" d="
  M 620.46 117.91
  A 0.98 0.97 13.4 0 0 619.92 117.04
  Q 612.88 113.62 605.26 112.66
  Q 604.71 112.59 604.74 112.01
  A 0.57 0.56 89.4 0 1 605.25 111.48
  L 653.51 107.80
  Q 654.04 107.76 654.02 108.29
  C 653.60 116.00 652.78 123.92 652.77 131.34
  Q 652.71 172.14 652.78 212.94
  C 652.79 220.98 655.20 227.76 661.90 232.25
  Q 662.64 232.75 661.75 232.75
  L 619.24 232.75
  A 0.44 0.44 0.0 0 1 618.80 232.26
  C 619.87 223.10 620.41 214.77 620.43 204.97
  Q 620.54 161.56 620.46 117.91
  Z"
/>
<path fill="#d9d9d9" d="
  M 867.17 157.07
  C 867.53 136.40 879.07 105.72 905.79 112.49
  C 919.68 116.02 927.24 130.35 927.60 144.02
  C 927.76 150.02 924.99 157.01 918.00 157.06
  Q 892.75 157.26 867.61 157.51
  A 0.44 0.43 0.6 0 1 867.17 157.07
  Z"
/>
<path fill="#d9d9d9" d="
  M 1227.59 114.87
  Q 1241.42 109.14 1255.78 113.02
  C 1288.87 121.97 1294.17 171.34 1290.49 198.24
  C 1287.91 217.22 1276.80 232.10 1256.00 229.76
  Q 1240.42 228.01 1227.35 216.31
  Q 1227.00 216.00 1227.00 215.53
  L 1227.00 115.75
  Q 1227.00 115.11 1227.59 114.87
  Z"
/>
<path fill="#d9d9d9" d="
  M 1378.60 157.03
  C 1378.88 141.91 1384.13 122.31 1398.71 114.57
  C 1421.09 102.67 1442.89 127.16 1438.63 148.74
  C 1437.33 155.39 1433.20 156.93 1426.67 157.01
  Q 1402.87 157.29 1379.10 157.53
  Q 1378.60 157.54 1378.60 157.03
  Z"
/>
<path fill="#d9d9d9" d="
  M 557.18 184.69
  C 557.17 203.94 554.53 222.64 532.07 226.82
  Q 504.15 232.02 476.90 223.01
  Q 476.50 222.88 476.50 222.45
  L 476.50 133.51
  Q 476.50 133.02 476.99 133.02
  C 516.72 132.88 557.19 128.89 557.18 184.69
  Z"
/>
<path fill="#f08a5d" d="
  M 97.11 197.50
  L 103.14 197.49
  A 0.69 0.68 -4.9 0 0 103.82 196.69
  Q 101.39 182.61 99.20 168.78
  C 98.29 162.97 101.00 158.04 107.32 158.03
  Q 160.02 157.96 212.74 158.04
  C 218.58 158.05 223.86 162.37 221.26 168.45
  Q 208.79 197.49 196.19 226.43
  C 194.73 229.78 191.21 230.39 187.54 230.45
  Q 152.49 231.04 129.00 230.41
  C 125.32 230.32 113.20 219.62 109.68 216.94
  C 108.29 215.88 107.75 214.88 106.84 213.39
  A 0.93 0.93 0.0 0 0 105.99 212.94
  L 97.01 213.30
  A 0.70 0.70 0.0 0 0 96.35 213.86
  C 89.32 248.38 49.93 264.19 21.50 242.44
  C -6.57 220.95 -1.66 176.85 30.82 162.42
  C 59.53 149.67 90.04 166.85 96.37 196.89
  A 0.76 0.75 84.4 0 0 97.11 197.50
  Z
  M 47.27 198.26
  A 2.84 2.80 23.2 0 1 49.20 197.50
  L 74.53 197.50
  A 1.43 1.42 -12.6 0 0 75.82 195.47
  Q 71.40 186.16 63.61 181.43
  C 49.82 173.06 31.28 179.20 24.77 193.42
  C 18.78 206.48 23.85 222.58 36.83 229.24
  C 52.25 237.15 68.65 230.71 75.94 214.96
  A 0.87 0.87 0.0 0 0 75.14 213.73
  Q 62.61 213.87 49.82 213.49
  C 43.26 213.29 44.94 200.45 47.27 198.26
  Z"
/>
<path fill="#d9d9d9" d="
  M 270.22 201.35
  C 276.32 211.74 287.56 204.24 282.06 194.99
  Q 274.58 182.42 267.25 169.83
  A 0.62 0.61 -21.6 0 1 267.65 168.92
  Q 286.89 164.46 299.73 176.76
  C 310.93 187.49 312.64 204.96 304.13 217.58
  C 291.82 235.85 265.88 238.06 251.38 220.72
  C 240.24 207.42 242.43 188.46 254.30 176.46
  Q 255.20 175.56 255.83 176.66
  Q 262.84 188.78 270.22 201.35
  Z"
/>
<path fill="#d9d9d9" d="
  M 47.27 198.26
  C 44.94 200.45 43.26 213.29 49.82 213.49
  Q 62.61 213.87 75.14 213.73
  A 0.87 0.87 0.0 0 1 75.94 214.96
  C 68.65 230.71 52.25 237.15 36.83 229.24
  C 23.85 222.58 18.78 206.48 24.77 193.42
  C 31.28 179.20 49.82 173.06 63.61 181.43
  Q 71.40 186.16 75.82 195.47
  A 1.43 1.42 -12.6 0 1 74.53 197.50
  L 49.20 197.50
  A 2.84 2.80 23.2 0 0 47.27 198.26
  Z"
/>
</svg>
